<svg width="286" height="66" viewBox="0 0 286 66" fill="none" xmlns="http://www.w3.org/2000/svg">
<g filter="url(#filter0_d_209:6)">
<path d="M47.5814 39.2722C47.1719 44.933 45.0762 49.3894 41.2943 52.6414C37.5365 55.8933 32.5742 57.5193 26.4076 57.5193C19.6628 57.5193 14.3512 55.255 10.473 50.7263C6.61883 46.1736 4.69174 39.9347 4.69174 32.0095V28.7937C4.69174 23.7351 5.58302 19.2787 7.36557 15.4246C9.14812 11.5704 11.6895 8.61955 14.9896 6.57202C18.3138 4.50041 22.168 3.4646 26.5521 3.4646C32.6224 3.4646 37.5124 5.09058 41.222 8.34253C44.9317 11.5945 47.0755 16.1593 47.6537 22.0369H36.8138C36.5488 18.6404 35.5973 16.1833 33.9593 14.6658C32.3454 13.1241 29.8763 12.3533 26.5521 12.3533C22.9388 12.3533 20.2289 13.6541 18.4222 16.2556C16.6397 18.8331 15.7243 22.8438 15.6761 28.2878V32.2625C15.6761 37.9473 16.5313 42.1026 18.2415 44.7283C19.9759 47.3539 22.6979 48.6667 26.4076 48.6667C29.7559 48.6667 32.249 47.908 33.8871 46.3904C35.5492 44.8487 36.5007 42.476 36.7415 39.2722H47.5814ZM81.9798 42.9939C81.9798 40.9464 81.2572 39.3806 79.8119 38.2966C78.3665 37.1886 75.765 36.0323 72.0072 34.8279C68.2494 33.5994 65.2744 32.3949 63.0824 31.2146C57.1084 27.9867 54.1214 23.6388 54.1214 18.1707C54.1214 15.3282 54.9164 12.7989 56.5062 10.5828C58.1201 8.34253 60.4206 6.59611 63.4076 5.34351C66.4186 4.0909 69.791 3.4646 73.5247 3.4646C77.2826 3.4646 80.6309 4.15112 83.5697 5.52417C86.5085 6.87313 88.7848 8.78817 90.3988 11.2693C92.0368 13.7504 92.8558 16.5688 92.8558 19.7244H82.016C82.016 17.3155 81.2572 15.4486 79.7396 14.1238C78.222 12.7748 76.0902 12.1003 73.3441 12.1003C70.6943 12.1003 68.6348 12.6664 67.1654 13.7986C65.696 14.9067 64.9613 16.3761 64.9613 18.2068C64.9613 19.9171 65.8164 21.3503 67.5267 22.5066C69.2611 23.6628 71.8024 24.7468 75.1507 25.7585C81.3174 27.6134 85.8099 29.9138 88.6283 32.6599C91.4466 35.406 92.8558 38.8266 92.8558 42.9216C92.8558 47.4744 91.1335 51.0515 87.6888 53.6531C84.2442 56.2306 79.6071 57.5193 73.7777 57.5193C69.7308 57.5193 66.0453 56.7846 62.721 55.3152C59.3968 53.8217 56.8555 51.7862 55.097 49.2087C53.3626 46.6313 52.4955 43.6443 52.4955 40.2478H63.3714C63.3714 46.0531 66.8402 48.9558 73.7777 48.9558C76.3552 48.9558 78.3665 48.4379 79.8119 47.4021C81.2572 46.3422 81.9798 44.8728 81.9798 42.9939ZM141.527 39.2722C141.117 44.933 139.021 49.3894 135.24 52.6414C131.482 55.8933 126.52 57.5193 120.353 57.5193C113.608 57.5193 108.297 55.255 104.418 50.7263C100.564 46.1736 98.6371 39.9347 98.6371 32.0095V28.7937C98.6371 23.7351 99.5283 19.2787 101.311 15.4246C103.093 11.5704 105.635 8.61955 108.935 6.57202C112.259 4.50041 116.113 3.4646 120.497 3.4646C126.568 3.4646 131.458 5.09058 135.167 8.34253C138.877 11.5945 141.021 16.1593 141.599 22.0369H130.759C130.494 18.6404 129.543 16.1833 127.905 14.6658C126.291 13.1241 123.822 12.3533 120.497 12.3533C116.884 12.3533 114.174 13.6541 112.368 16.2556C110.585 18.8331 109.67 22.8438 109.621 28.2878V32.2625C109.621 37.9473 110.477 42.1026 112.187 44.7283C113.921 47.3539 116.643 48.6667 120.353 48.6667C123.701 48.6667 126.194 47.908 127.832 46.3904C129.494 44.8487 130.446 42.476 130.687 39.2722H141.527Z" fill="white"/>
<path d="M47.5814 39.2722L48.5788 39.3444L48.6563 38.2722H47.5814V39.2722ZM41.2943 52.6414L40.6423 51.8831L40.6399 51.8852L41.2943 52.6414ZM10.473 50.7263L9.70975 51.3725L9.71345 51.3768L10.473 50.7263ZM14.9896 6.57202L15.5168 7.42176L15.5185 7.42071L14.9896 6.57202ZM41.222 8.34253L40.5628 9.0945L41.222 8.34253ZM47.6537 22.0369V23.0369H48.7568L48.6489 21.939L47.6537 22.0369ZM36.8138 22.0369L35.8168 22.1146L35.8888 23.0369H36.8138V22.0369ZM33.9593 14.6658L33.2686 15.3889L33.2741 15.3941L33.2797 15.3993L33.9593 14.6658ZM18.4222 16.2556L17.6008 15.6852L17.5997 15.6868L18.4222 16.2556ZM15.6761 28.2878L14.6761 28.279V28.2878H15.6761ZM18.2415 44.7283L17.4036 45.2741L17.4071 45.2794L18.2415 44.7283ZM33.8871 46.3904L34.5667 47.1239L34.5671 47.1236L33.8871 46.3904ZM36.7415 39.2722V38.2722H35.8139L35.7444 39.1972L36.7415 39.2722ZM46.584 39.2001C46.1908 44.6352 44.1939 48.8292 40.6423 51.8831L41.9463 53.3996C45.9585 49.9496 48.153 45.2309 48.5788 39.3444L46.584 39.2001ZM40.6399 51.8852C37.1046 54.9446 32.3939 56.5193 26.4076 56.5193V58.5193C32.7546 58.5193 37.9684 56.842 41.9487 53.3975L40.6399 51.8852ZM26.4076 56.5193C19.912 56.5193 14.8946 54.3521 11.2325 50.0759L9.71345 51.3768C13.8079 56.1579 19.4135 58.5193 26.4076 58.5193V56.5193ZM11.2362 50.0802C7.57897 45.7601 5.69174 39.7766 5.69174 32.0095H3.69174C3.69174 40.0928 5.65868 46.5871 9.70976 51.3724L11.2362 50.0802ZM5.69174 32.0095V28.7937H3.69174V32.0095H5.69174ZM5.69174 28.7937C5.69174 23.8527 6.56202 19.5442 8.2732 15.8443L6.45794 15.0048C4.60401 19.0133 3.69174 23.6175 3.69174 28.7937H5.69174ZM8.2732 15.8443C9.98168 12.1503 12.3982 9.35664 15.5168 7.42176L14.4624 5.72229C10.9807 7.88246 8.31457 10.9905 6.45794 15.0048L8.2732 15.8443ZM15.5185 7.42071C18.6656 5.45946 22.332 4.4646 26.5521 4.4646V2.4646C22.004 2.4646 17.962 3.54135 14.4607 5.72333L15.5185 7.42071ZM26.5521 4.4646C32.4381 4.4646 37.075 6.03703 40.5628 9.0945L41.8812 7.59056C37.9497 4.14412 32.8067 2.4646 26.5521 2.4646V4.4646ZM40.5628 9.0945C44.0449 12.147 46.1 16.4571 46.6585 22.1348L48.6489 21.939C48.0511 15.8614 45.8184 11.042 41.8812 7.59056L40.5628 9.0945ZM47.6537 21.0369H36.8138V23.0369H47.6537V21.0369ZM37.8108 21.9591C37.5362 18.4397 36.5378 15.6915 34.6389 13.9322L33.2797 15.3993C34.6569 16.6752 35.5615 18.841 35.8168 22.1146L37.8108 21.9591ZM34.6501 13.9427C32.7765 12.153 30.0097 11.3533 26.5521 11.3533V13.3533C29.7429 13.3533 31.9143 14.0952 33.2686 15.3889L34.6501 13.9427ZM26.5521 11.3533C22.6646 11.3533 19.6229 12.7735 17.6008 15.6852L19.2436 16.826C20.8348 14.5346 23.213 13.3533 26.5521 13.3533V11.3533ZM17.5997 15.6868C15.6467 18.5109 14.725 22.7653 14.6762 28.279L16.6761 28.2967C16.7236 22.9224 17.6327 19.1553 19.2447 16.8244L17.5997 15.6868ZM14.6761 28.2878V32.2625H16.6761V28.2878H14.6761ZM14.6761 32.2625C14.6761 38.0049 15.532 42.4007 17.4036 45.2741L19.0795 44.1825C17.5306 41.8046 16.6761 37.8898 16.6761 32.2625H14.6761ZM17.4071 45.2794C19.3619 48.2388 22.4316 49.6667 26.4076 49.6667V47.6667C22.9643 47.6667 20.5899 46.4691 19.0759 44.1771L17.4071 45.2794ZM26.4076 49.6667C29.8849 49.6667 32.6699 48.8812 34.5667 47.1239L33.2074 45.6568C31.8282 46.9347 29.6269 47.6667 26.4076 47.6667V49.6667ZM34.5671 47.1236C36.479 45.3502 37.4868 42.6977 37.7387 39.3472L35.7444 39.1972C35.5145 42.2543 34.6193 44.3472 33.207 45.6572L34.5671 47.1236ZM36.7415 40.2722H47.5814V38.2722H36.7415V40.2722ZM79.8119 38.2966L79.2034 39.0903L79.2119 39.0966L79.8119 38.2966ZM72.0072 34.8279L71.6964 35.7784L71.702 35.7802L72.0072 34.8279ZM63.0824 31.2146L62.607 32.0944L62.6083 32.0951L63.0824 31.2146ZM56.5062 10.5828L55.6948 9.99823L55.6937 9.99986L56.5062 10.5828ZM63.4076 5.34351L63.0235 4.42021L63.0208 4.42131L63.4076 5.34351ZM83.5697 5.52417L83.1464 6.43018L83.1525 6.433L83.5697 5.52417ZM90.3988 11.2693L89.5605 11.8146L89.5642 11.8202L90.3988 11.2693ZM92.8558 19.7244V20.7244H93.8558V19.7244H92.8558ZM82.016 19.7244H81.016V20.7244H82.016V19.7244ZM79.7396 14.1238L79.0752 14.8712L79.0819 14.8771L79.7396 14.1238ZM67.1654 13.7986L67.7675 14.5971L67.7757 14.5907L67.1654 13.7986ZM67.5267 22.5066L66.9666 23.3351L66.972 23.3386L67.5267 22.5066ZM75.1507 25.7585L74.8615 26.7158L74.8627 26.7162L75.1507 25.7585ZM87.6888 53.6531L88.2879 54.4538L88.2915 54.4511L87.6888 53.6531ZM62.721 55.3152L62.3112 56.2274L62.3167 56.2298L62.721 55.3152ZM55.097 49.2087L54.2673 49.767L54.271 49.7723L55.097 49.2087ZM52.4955 40.2478V39.2478H51.4955V40.2478H52.4955ZM63.3714 40.2478H64.3714V39.2478H63.3714V40.2478ZM79.8119 47.4021L80.3944 48.215L80.4032 48.2085L79.8119 47.4021ZM82.9798 42.9939C82.9798 40.6796 82.1451 38.7965 80.4119 37.4966L79.2119 39.0966C80.3693 39.9647 80.9798 41.2131 80.9798 42.9939H82.9798ZM80.4203 37.503C78.8278 36.2821 76.0822 35.0839 72.3124 33.8756L71.702 35.7802C75.4478 36.9807 77.9053 38.095 79.2034 39.0902L80.4203 37.503ZM72.3179 33.8774C68.5878 32.6579 65.6751 31.4749 63.5565 30.3341L62.6083 32.0951C64.8738 33.315 67.9109 34.5408 71.6964 35.7784L72.3179 33.8774ZM63.5577 30.3348C57.8146 27.2317 55.1214 23.1771 55.1214 18.1707H53.1214C53.1214 24.1004 56.4022 28.7418 62.607 32.0944L63.5577 30.3348ZM55.1214 18.1707C55.1214 15.5279 55.8562 13.2044 57.3187 11.1657L55.6937 9.99986C53.9765 12.3934 53.1214 15.1285 53.1214 18.1707H55.1214ZM57.3176 11.1673C58.8063 9.10082 60.9475 7.45953 63.7943 6.2657L63.0208 4.42131C59.8937 5.73269 57.4339 7.58424 55.6948 9.99823L57.3176 11.1673ZM63.7917 6.2668C66.6646 5.07164 69.9039 4.4646 73.5247 4.4646V2.4646C69.6782 2.4646 66.1726 3.11016 63.0235 4.42021L63.7917 6.2668ZM73.5247 4.4646C77.1594 4.4646 80.3595 5.12811 83.1464 6.43016L83.993 4.61818C80.9022 3.17413 77.4058 2.4646 73.5247 2.4646V4.4646ZM83.1525 6.433C85.9359 7.71062 88.0592 9.50658 89.5605 11.8146L91.237 10.724C89.5105 8.06975 87.0811 6.03564 83.9868 4.61534L83.1525 6.433ZM89.5642 11.8202C91.0876 14.1276 91.8558 16.752 91.8558 19.7244H93.8558C93.8558 16.3855 92.986 13.3732 91.2333 10.7183L89.5642 11.8202ZM92.8558 18.7244H82.016V20.7244H92.8558V18.7244ZM83.016 19.7244C83.016 17.0887 82.175 14.9225 80.3973 13.3705L79.0819 14.8771C80.3393 15.9748 81.016 17.5423 81.016 19.7244H83.016ZM80.404 13.3764C78.6472 11.8148 76.2479 11.1003 73.3441 11.1003V13.1003C75.9325 13.1003 77.7968 13.7348 79.0752 14.8712L80.404 13.3764ZM73.3441 11.1003C70.5655 11.1003 68.2604 11.6925 66.555 13.0064L67.7757 14.5907C69.0092 13.6404 70.8232 13.1003 73.3441 13.1003V11.1003ZM66.5633 13.0002C64.8449 14.296 63.9613 16.0603 63.9613 18.2068H65.9613C65.9613 16.6918 66.5471 15.5173 67.7675 14.597L66.5633 13.0002ZM63.9613 18.2068C63.9613 20.3207 65.0464 22.0369 66.9666 23.335L68.0868 21.6781C66.5864 20.6638 65.9613 19.5134 65.9613 18.2068H63.9613ZM66.972 23.3386C68.825 24.574 71.4736 25.6921 74.8615 26.7158L75.44 24.8013C72.1313 23.8015 69.6972 22.7517 68.0814 21.6745L66.972 23.3386ZM74.8627 26.7162C80.9622 28.5508 85.2783 30.792 87.9304 33.3761L89.3261 31.9437C86.3415 29.0356 81.6725 26.6759 75.4388 24.8009L74.8627 26.7162ZM87.9304 33.3761C90.547 35.9256 91.8558 39.084 91.8558 42.9216H93.8558C93.8558 38.5691 92.3463 34.8864 89.3261 31.9437L87.9304 33.3761ZM91.8558 42.9216C91.8558 47.1808 90.265 50.4542 87.0861 52.8551L88.2915 54.4511C92.0019 51.6488 93.8558 47.7679 93.8558 42.9216H91.8558ZM87.0897 52.8524C83.8701 55.2615 79.4668 56.5193 73.7777 56.5193V58.5193C79.7474 58.5193 84.6182 57.1996 88.2879 54.4537L87.0897 52.8524ZM73.7777 56.5193C69.8542 56.5193 66.3084 55.8076 63.1253 54.4006L62.3167 56.2298C65.7821 57.7616 69.6074 58.5193 73.7777 58.5193V56.5193ZM63.1309 54.403C59.9462 52.9722 57.5612 51.0462 55.9231 48.6452L54.271 49.7723C56.1498 52.5262 58.8474 54.6712 62.3112 56.2274L63.1309 54.403ZM55.9267 48.6505C54.3137 46.2534 53.4955 43.4648 53.4955 40.2478H51.4955C51.4955 43.8238 52.4116 47.0092 54.2674 49.767L55.9267 48.6505ZM52.4955 41.2478H63.3714V39.2478H52.4955V41.2478ZM62.3714 40.2478C62.3714 43.356 63.3085 45.8531 65.3312 47.5457C67.3198 49.2098 70.1939 49.9558 73.7777 49.9558V47.9558C70.424 47.9558 68.0949 47.2505 66.6147 46.0119C65.1687 44.8019 64.3714 42.9449 64.3714 40.2478H62.3714ZM73.7777 49.9558C76.4741 49.9558 78.7184 49.4161 80.3944 48.2149L79.2293 46.5893C78.0147 47.4597 76.2362 47.9558 73.7777 47.9558V49.9558ZM80.4032 48.2085C82.1197 46.9498 82.9798 45.1733 82.9798 42.9939H80.9798C80.9798 44.5723 80.3947 45.7346 79.2205 46.5957L80.4032 48.2085ZM141.527 39.2722L142.524 39.3444L142.602 38.2722H141.527V39.2722ZM135.24 52.6414L134.588 51.8831L134.585 51.8852L135.24 52.6414ZM104.418 50.7263L103.655 51.3725L103.659 51.3768L104.418 50.7263ZM108.935 6.57202L109.462 7.42176L109.464 7.42071L108.935 6.57202ZM135.167 8.34253L134.508 9.0945L135.167 8.34253ZM141.599 22.0369V23.0369H142.702L142.594 21.939L141.599 22.0369ZM130.759 22.0369L129.762 22.1146L129.834 23.0369H130.759V22.0369ZM127.905 14.6658L127.214 15.3889L127.219 15.3941L127.225 15.3993L127.905 14.6658ZM112.368 16.2556L111.546 15.6852L111.545 15.6868L112.368 16.2556ZM109.621 28.2878L108.621 28.279V28.2878H109.621ZM112.187 44.7283L111.349 45.2741L111.352 45.2794L112.187 44.7283ZM127.832 46.3904L128.512 47.1239L128.512 47.1236L127.832 46.3904ZM130.687 39.2722V38.2722H129.759L129.69 39.1972L130.687 39.2722ZM140.529 39.2001C140.136 44.6352 138.139 48.8292 134.588 51.8831L135.892 53.3996C139.904 49.9496 142.098 45.2309 142.524 39.3444L140.529 39.2001ZM134.585 51.8852C131.05 54.9446 126.339 56.5193 120.353 56.5193V58.5193C126.7 58.5193 131.914 56.842 135.894 53.3975L134.585 51.8852ZM120.353 56.5193C113.857 56.5193 108.84 54.3521 105.178 50.0759L103.659 51.3768C107.753 56.1579 113.359 58.5193 120.353 58.5193V56.5193ZM105.182 50.0802C101.524 45.7601 99.6371 39.7766 99.6371 32.0095H97.6371C97.6371 40.0928 99.604 46.5871 103.655 51.3724L105.182 50.0802ZM99.6371 32.0095V28.7937H97.6371V32.0095H99.6371ZM99.6371 28.7937C99.6371 23.8527 100.507 19.5442 102.219 15.8443L100.403 15.0048C98.5493 19.0133 97.6371 23.6175 97.6371 28.7937H99.6371ZM102.219 15.8443C103.927 12.1503 106.344 9.35664 109.462 7.42176L108.408 5.72229C104.926 7.88246 102.26 10.9905 100.403 15.0048L102.219 15.8443ZM109.464 7.42071C112.611 5.45946 116.277 4.4646 120.497 4.4646V2.4646C115.949 2.4646 111.907 3.54135 108.406 5.72333L109.464 7.42071ZM120.497 4.4646C126.383 4.4646 131.02 6.03703 134.508 9.0945L135.827 7.59056C131.895 4.14412 126.752 2.4646 120.497 2.4646V4.4646ZM134.508 9.0945C137.99 12.147 140.045 16.4571 140.604 22.1348L142.594 21.939C141.996 15.8614 139.764 11.042 135.827 7.59056L134.508 9.0945ZM141.599 21.0369H130.759V23.0369H141.599V21.0369ZM131.756 21.9591C131.482 18.4397 130.483 15.6915 128.584 13.9322L127.225 15.3993C128.602 16.6752 129.507 18.841 129.762 22.1146L131.756 21.9591ZM128.595 13.9427C126.722 12.153 123.955 11.3533 120.497 11.3533V13.3533C123.688 13.3533 125.86 14.0952 127.214 15.3889L128.595 13.9427ZM120.497 11.3533C116.61 11.3533 113.568 12.7735 111.546 15.6852L113.189 16.826C114.78 14.5346 117.158 13.3533 120.497 13.3533V11.3533ZM111.545 15.6868C109.592 18.5109 108.67 22.7653 108.621 28.279L110.621 28.2967C110.669 22.9224 111.578 19.1553 113.19 16.8244L111.545 15.6868ZM108.621 28.2878V32.2625H110.621V28.2878H108.621ZM108.621 32.2625C108.621 38.0049 109.477 42.4007 111.349 45.2741L113.025 44.1825C111.476 41.8046 110.621 37.8898 110.621 32.2625H108.621ZM111.352 45.2794C113.307 48.2388 116.377 49.6667 120.353 49.6667V47.6667C116.91 47.6667 114.535 46.4691 113.021 44.1771L111.352 45.2794ZM120.353 49.6667C123.83 49.6667 126.615 48.8812 128.512 47.1239L127.153 45.6568C125.773 46.9347 123.572 47.6667 120.353 47.6667V49.6667ZM128.512 47.1236C130.424 45.3502 131.432 42.6977 131.684 39.3472L129.69 39.1972C129.46 42.2543 128.565 44.3472 127.152 45.6572L128.512 47.1236ZM130.687 40.2722H141.527V38.2722H130.687V40.2722Z" fill="white"/>
</g>
<g filter="url(#filter1_d_209:6)">
<path d="M158.898 15.5325C158.815 16.6799 158.39 17.5833 157.624 18.2424C156.862 18.9016 155.856 19.2312 154.606 19.2312C153.239 19.2312 152.162 18.7722 151.376 17.8542C150.595 16.9314 150.204 15.6667 150.204 14.0603V13.4084C150.204 12.3831 150.385 11.4797 150.746 10.6985C151.108 9.91724 151.623 9.31909 152.292 8.90405C152.966 8.48413 153.747 8.27417 154.635 8.27417C155.866 8.27417 156.857 8.60376 157.609 9.26294C158.361 9.92212 158.796 10.8474 158.913 12.0388H156.716C156.662 11.3503 156.469 10.8523 156.137 10.5447C155.81 10.2322 155.309 10.0759 154.635 10.0759C153.903 10.0759 153.354 10.3396 152.988 10.8669C152.626 11.3894 152.441 12.2024 152.431 13.3059V14.1116C152.431 15.2639 152.604 16.1062 152.951 16.6384C153.302 17.1707 153.854 17.4368 154.606 17.4368C155.285 17.4368 155.79 17.283 156.122 16.9753C156.459 16.6628 156.652 16.1819 156.701 15.5325H158.898ZM166.757 14.4631H162.538V17.3196H167.49V19.0847H160.341V8.42065H167.475V10.2004H162.538V12.7419H166.757V14.4631ZM177.45 19.0847H175.253L170.976 12.0681V19.0847H168.779V8.42065H170.976L175.26 15.4519V8.42065H177.45V19.0847ZM187.177 10.2004H183.91V19.0847H181.713V10.2004H178.49V8.42065H187.177V10.2004ZM192.385 15.1809H190.634V19.0847H188.437V8.42065H192.399C193.659 8.42065 194.631 8.70142 195.314 9.26294C195.998 9.82446 196.34 10.6179 196.34 11.6433C196.34 12.3708 196.181 12.9788 195.864 13.467C195.551 13.9504 195.075 14.3362 194.435 14.6243L196.742 18.9822V19.0847H194.384L192.385 15.1809ZM190.634 13.4011H192.406C192.958 13.4011 193.385 13.262 193.688 12.9836C193.991 12.7004 194.142 12.3123 194.142 11.8191C194.142 11.3162 193.998 10.9207 193.71 10.6326C193.427 10.3445 192.99 10.2004 192.399 10.2004H190.634V13.4011ZM206.777 13.9944C206.777 15.0442 206.591 15.9646 206.22 16.7556C205.849 17.5466 205.317 18.157 204.623 18.5867C203.935 19.0164 203.144 19.2312 202.25 19.2312C201.366 19.2312 200.578 19.0188 199.885 18.594C199.191 18.1692 198.654 17.5637 198.273 16.7776C197.892 15.9866 197.699 15.0784 197.695 14.053V13.5256C197.695 12.4758 197.883 11.553 198.259 10.7571C198.639 9.9563 199.174 9.34351 199.863 8.9187C200.556 8.48901 201.347 8.27417 202.236 8.27417C203.124 8.27417 203.913 8.48901 204.601 8.9187C205.295 9.34351 205.829 9.9563 206.205 10.7571C206.586 11.553 206.777 12.4734 206.777 13.5183V13.9944ZM204.55 13.511C204.55 12.3928 204.35 11.5432 203.949 10.9622C203.549 10.3811 202.978 10.0906 202.236 10.0906C201.498 10.0906 200.929 10.3787 200.529 10.9548C200.129 11.5261 199.926 12.366 199.921 13.4744V13.9944C199.921 15.0833 200.121 15.928 200.522 16.5286C200.922 17.1292 201.498 17.4294 202.25 17.4294C202.988 17.4294 203.554 17.1414 203.949 16.5652C204.345 15.9841 204.545 15.1394 204.55 14.031V13.511ZM212.109 19.0847V8.42065H215.39C216.327 8.42065 217.165 8.63306 217.902 9.05786C218.644 9.47778 219.223 10.0784 219.638 10.8596C220.053 11.636 220.26 12.5198 220.26 13.511V14.0017C220.26 14.9929 220.055 15.8743 219.645 16.6458C219.24 17.4172 218.666 18.0154 217.924 18.4402C217.182 18.865 216.344 19.0798 215.412 19.0847H212.109ZM214.306 10.2004V17.3196H215.368C216.227 17.3196 216.884 17.0388 217.338 16.4773C217.792 15.9158 218.024 15.1125 218.034 14.0676V13.5037C218.034 12.4197 217.809 11.5994 217.36 11.0427C216.911 10.4812 216.254 10.2004 215.39 10.2004H214.306ZM228.281 14.4631H224.062V17.3196H229.013V19.0847H221.865V8.42065H228.998V10.2004H224.062V12.7419H228.281V14.4631ZM156.056 34.2869C156.056 33.8718 155.91 33.5544 155.617 33.3347C155.324 33.1101 154.797 32.8757 154.035 32.6316C153.273 32.3826 152.67 32.1384 152.226 31.8992C151.015 31.2449 150.409 30.3635 150.409 29.2551C150.409 28.679 150.571 28.1663 150.893 27.717C151.22 27.2629 151.686 26.9089 152.292 26.655C152.902 26.4011 153.586 26.2742 154.343 26.2742C155.104 26.2742 155.783 26.4133 156.379 26.6917C156.974 26.9651 157.436 27.3533 157.763 27.8562C158.095 28.3591 158.261 28.9304 158.261 29.5701H156.064C156.064 29.0818 155.91 28.7034 155.602 28.4348C155.295 28.1614 154.863 28.0247 154.306 28.0247C153.769 28.0247 153.351 28.1394 153.053 28.3689C152.756 28.5935 152.607 28.8914 152.607 29.2625C152.607 29.6091 152.78 29.8997 153.127 30.134C153.478 30.3684 153.993 30.5881 154.672 30.7932C155.922 31.1692 156.833 31.6355 157.404 32.1921C157.975 32.7488 158.261 33.4421 158.261 34.2722C158.261 35.1951 157.912 35.9202 157.214 36.4475C156.515 36.97 155.575 37.2312 154.394 37.2312C153.573 37.2312 152.826 37.0823 152.153 36.7844C151.479 36.4817 150.964 36.0691 150.607 35.5466C150.256 35.0242 150.08 34.4187 150.08 33.7302H152.284C152.284 34.907 152.988 35.4954 154.394 35.4954C154.916 35.4954 155.324 35.3904 155.617 35.1804C155.91 34.9656 156.056 34.6677 156.056 34.2869ZM166.171 32.4631H161.952V35.3196H166.904V37.0847H159.755V26.4207H166.889V28.2004H161.952V30.7419H166.171V32.4631ZM172.14 33.1809H170.39V37.0847H168.193V26.4207H172.155C173.415 26.4207 174.386 26.7014 175.07 27.2629C175.754 27.8245 176.095 28.6179 176.095 29.6433C176.095 30.3708 175.937 30.9788 175.619 31.467C175.307 31.9504 174.831 32.3362 174.191 32.6243L176.498 36.9822V37.0847H174.14L172.14 33.1809ZM170.39 31.4011H172.162C172.714 31.4011 173.141 31.262 173.444 30.9836C173.747 30.7004 173.898 30.3123 173.898 29.8191C173.898 29.3162 173.754 28.9207 173.466 28.6326C173.183 28.3445 172.746 28.2004 172.155 28.2004H170.39V31.4011ZM181.567 34.4407L183.984 26.4207H186.43L182.717 37.0847H180.424L176.725 26.4207H179.164L181.567 34.4407ZM189.777 37.0847H187.58V26.4207H189.777V37.0847ZM200.192 33.5325C200.109 34.6799 199.684 35.5833 198.918 36.2424C198.156 36.9016 197.15 37.2312 195.9 37.2312C194.533 37.2312 193.456 36.7722 192.67 35.8542C191.889 34.9314 191.498 33.6667 191.498 32.0603V31.4084C191.498 30.3831 191.679 29.4797 192.04 28.6985C192.402 27.9172 192.917 27.3191 193.586 26.9041C194.26 26.4841 195.041 26.2742 195.929 26.2742C197.16 26.2742 198.151 26.6038 198.903 27.2629C199.655 27.9221 200.09 28.8474 200.207 30.0388H198.01C197.956 29.3503 197.763 28.8523 197.431 28.5447C197.104 28.2322 196.603 28.0759 195.929 28.0759C195.197 28.0759 194.648 28.3396 194.281 28.8669C193.92 29.3894 193.735 30.2024 193.725 31.3059V32.1116C193.725 33.2639 193.898 34.1062 194.245 34.6384C194.596 35.1707 195.148 35.4368 195.9 35.4368C196.579 35.4368 197.084 35.283 197.416 34.9753C197.753 34.6628 197.946 34.1819 197.995 33.5325H200.192ZM196.706 37.0408L196.625 37.4656C197.358 37.5974 197.724 38.0198 197.724 38.7327C197.724 39.2698 197.499 39.6946 197.05 40.0071C196.606 40.3196 195.978 40.4758 195.168 40.4758L195.116 39.2527C195.663 39.2527 195.937 39.0549 195.937 38.6594C195.937 38.4543 195.854 38.3127 195.688 38.2346C195.527 38.1614 195.263 38.1125 194.897 38.0881L195.124 37.0408H196.706ZM210.395 31.9944C210.395 33.0442 210.209 33.9646 209.838 34.7556C209.467 35.5466 208.935 36.157 208.241 36.5867C207.553 37.0164 206.762 37.2312 205.868 37.2312C204.985 37.2312 204.196 37.0188 203.503 36.594C202.809 36.1692 202.272 35.5637 201.891 34.7776C201.51 33.9866 201.318 33.0784 201.313 32.053V31.5256C201.313 30.4758 201.501 29.553 201.877 28.7571C202.258 27.9563 202.792 27.3435 203.481 26.9187C204.174 26.489 204.965 26.2742 205.854 26.2742C206.742 26.2742 207.531 26.489 208.219 26.9187C208.913 27.3435 209.448 27.9563 209.823 28.7571C210.204 29.553 210.395 30.4734 210.395 31.5183V31.9944ZM208.168 31.511C208.168 30.3928 207.968 29.5432 207.568 28.9622C207.167 28.3811 206.596 28.0906 205.854 28.0906C205.116 28.0906 204.548 28.3787 204.147 28.9548C203.747 29.5261 203.544 30.366 203.539 31.4744V31.9944C203.539 33.0833 203.74 33.928 204.14 34.5286C204.54 35.1292 205.116 35.4294 205.868 35.4294C206.606 35.4294 207.172 35.1414 207.568 34.5652C207.963 33.9841 208.163 33.1394 208.168 32.031V31.511ZM217.521 34.2869C217.521 33.8718 217.375 33.5544 217.082 33.3347C216.789 33.1101 216.261 32.8757 215.5 32.6316C214.738 32.3826 214.135 32.1384 213.691 31.8992C212.48 31.2449 211.874 30.3635 211.874 29.2551C211.874 28.679 212.035 28.1663 212.358 27.717C212.685 27.2629 213.151 26.9089 213.757 26.655C214.367 26.4011 215.051 26.2742 215.807 26.2742C216.569 26.2742 217.248 26.4133 217.844 26.6917C218.439 26.9651 218.901 27.3533 219.228 27.8562C219.56 28.3591 219.726 28.9304 219.726 29.5701H217.529C217.529 29.0818 217.375 28.7034 217.067 28.4348C216.76 28.1614 216.327 28.0247 215.771 28.0247C215.234 28.0247 214.816 28.1394 214.518 28.3689C214.22 28.5935 214.072 28.8914 214.072 29.2625C214.072 29.6091 214.245 29.8997 214.592 30.134C214.943 30.3684 215.458 30.5881 216.137 30.7932C217.387 31.1692 218.298 31.6355 218.869 32.1921C219.44 32.7488 219.726 33.4421 219.726 34.2722C219.726 35.1951 219.377 35.9202 218.678 36.4475C217.98 36.97 217.04 37.2312 215.859 37.2312C215.038 37.2312 214.291 37.0823 213.617 36.7844C212.944 36.4817 212.428 36.0691 212.072 35.5466C211.72 35.0242 211.545 34.4187 211.545 33.7302H213.749C213.749 34.907 214.452 35.4954 215.859 35.4954C216.381 35.4954 216.789 35.3904 217.082 35.1804C217.375 34.9656 217.521 34.6677 217.521 34.2869ZM158.656 51.7009C158.525 52.8289 158.107 53.7004 157.404 54.3157C156.706 54.926 155.776 55.2312 154.614 55.2312C153.354 55.2312 152.343 54.7795 151.581 53.8762C150.824 52.9729 150.446 51.7644 150.446 50.2507V49.2253C150.446 48.2341 150.622 47.3625 150.973 46.6106C151.33 45.8586 151.833 45.2825 152.482 44.8821C153.132 44.4768 153.884 44.2742 154.738 44.2742C155.871 44.2742 156.779 44.5916 157.463 45.2263C158.146 45.8562 158.544 46.7302 158.656 47.8484H157.243C157.121 46.9988 156.855 46.3835 156.445 46.0027C156.039 45.6218 155.47 45.4314 154.738 45.4314C153.84 45.4314 153.134 45.7634 152.621 46.4275C152.114 47.0916 151.86 48.0364 151.86 49.262V50.2947C151.86 51.4519 152.101 52.3723 152.585 53.0559C153.068 53.7395 153.744 54.0813 154.614 54.0813C155.395 54.0813 155.993 53.9055 156.408 53.554C156.828 53.1975 157.106 52.5798 157.243 51.7009H158.656ZM168.786 50.0969C168.786 51.1418 168.61 52.0549 168.259 52.8362C167.907 53.6125 167.409 54.2058 166.764 54.616C166.12 55.0261 165.368 55.2312 164.509 55.2312C163.669 55.2312 162.924 55.0261 162.275 54.616C161.625 54.2009 161.12 53.6125 160.759 52.8508C160.402 52.0842 160.219 51.198 160.209 50.1921V49.4231C160.209 48.3977 160.387 47.4919 160.744 46.7058C161.1 45.9197 161.603 45.3191 162.253 44.9041C162.907 44.4841 163.654 44.2742 164.494 44.2742C165.348 44.2742 166.1 44.4817 166.75 44.8967C167.404 45.3069 167.907 45.905 168.259 46.6912C168.61 47.4724 168.786 48.3831 168.786 49.4231V50.0969ZM167.387 49.4084C167.387 48.1438 167.133 47.1746 166.625 46.5007C166.117 45.822 165.407 45.4827 164.494 45.4827C163.605 45.4827 162.905 45.822 162.392 46.5007C161.884 47.1746 161.623 48.1121 161.608 49.3132V50.0969C161.608 51.3225 161.865 52.2869 162.377 52.99C162.895 53.6882 163.605 54.0374 164.509 54.0374C165.417 54.0374 166.12 53.7078 166.618 53.0486C167.116 52.3845 167.372 51.4348 167.387 50.1995V49.4084ZM172.712 44.4207L176.198 53.1218L179.684 44.4207H181.508V55.0847H180.102V50.9319L180.234 46.4495L176.733 55.0847H175.656L172.162 46.4714L172.302 50.9319V55.0847H170.895V44.4207H172.712ZM185.397 50.9099V55.0847H183.991V44.4207H187.924C189.091 44.4207 190.004 44.7185 190.663 45.3142C191.327 45.9099 191.659 46.6985 191.659 47.6799C191.659 48.7151 191.335 49.5134 190.685 50.075C190.041 50.6316 189.115 50.9099 187.909 50.9099H185.397ZM185.397 49.76H187.924C188.676 49.76 189.252 49.5842 189.653 49.2327C190.053 48.8762 190.253 48.3635 190.253 47.6946C190.253 47.0598 190.053 46.552 189.653 46.1711C189.252 45.7903 188.703 45.5925 188.005 45.5779H185.397V49.76ZM199.343 52.3015H194.875L193.871 55.0847H192.421L196.493 44.4207H197.724L201.803 55.0847H200.361L199.343 52.3015ZM195.3 51.1443H198.925L197.109 46.1565L195.3 51.1443ZM207.15 50.7708H204.645V55.0847H203.232V44.4207H206.762C207.963 44.4207 208.886 44.6941 209.531 45.241C210.18 45.7878 210.505 46.5837 210.505 47.6287C210.505 48.2927 210.324 48.8713 209.963 49.3645C209.606 49.8577 209.108 50.2263 208.469 50.4705L210.973 54.9968V55.0847H209.465L207.15 50.7708ZM204.645 49.6208H206.806C207.504 49.6208 208.058 49.4402 208.469 49.0789C208.884 48.7175 209.091 48.2341 209.091 47.6287C209.091 46.9695 208.893 46.4641 208.498 46.1125C208.107 45.761 207.541 45.5828 206.799 45.5779H204.645V49.6208ZM219.85 45.5779H216.423V55.0847H215.024V45.5779H211.603V44.4207H219.85V45.5779ZM222.941 55.0847H221.535V44.4207H222.941V55.0847ZM226.933 53.9348H231.987V55.0847H225.519V44.4207H226.933V53.9348ZM241.786 55.0847H240.373V50.1555H234.997V55.0847H233.591V44.4207H234.997V49.0056H240.373V44.4207H241.786V55.0847ZM250.173 52.3015H245.705L244.701 55.0847H243.251L247.323 44.4207H248.554L252.634 55.0847H251.191L250.173 52.3015ZM246.13 51.1443H249.755L247.939 46.1565L246.13 51.1443ZM254.069 55.0847V44.4207H257.079C258.007 44.4207 258.827 44.6257 259.54 45.0359C260.253 45.446 260.802 46.0295 261.188 46.7864C261.579 47.5432 261.777 48.4124 261.781 49.3938V50.075C261.781 51.0808 261.586 51.9622 261.196 52.719C260.81 53.4758 260.256 54.0569 259.533 54.4622C258.815 54.8674 257.978 55.075 257.021 55.0847H254.069ZM255.475 45.5779V53.9348H256.955C258.039 53.9348 258.881 53.5979 259.482 52.9241C260.087 52.2502 260.39 51.2908 260.39 50.0457V49.4231C260.39 48.2122 260.104 47.2722 259.533 46.6033C258.967 45.9294 258.161 45.5876 257.116 45.5779H255.475ZM272.116 50.0969C272.116 51.1418 271.94 52.0549 271.589 52.8362C271.237 53.6125 270.739 54.2058 270.094 54.616C269.45 55.0261 268.698 55.2312 267.839 55.2312C266.999 55.2312 266.254 55.0261 265.605 54.616C264.955 54.2009 264.45 53.6125 264.089 52.8508C263.732 52.0842 263.549 51.198 263.539 50.1921V49.4231C263.539 48.3977 263.718 47.4919 264.074 46.7058C264.43 45.9197 264.933 45.3191 265.583 44.9041C266.237 44.4841 266.984 44.2742 267.824 44.2742C268.678 44.2742 269.43 44.4817 270.08 44.8967C270.734 45.3069 271.237 45.905 271.589 46.6912C271.94 47.4724 272.116 48.3831 272.116 49.4231V50.0969ZM270.717 49.4084C270.717 48.1438 270.463 47.1746 269.955 46.5007C269.448 45.822 268.737 45.4827 267.824 45.4827C266.935 45.4827 266.235 45.822 265.722 46.5007C265.214 47.1746 264.953 48.1121 264.938 49.3132V50.0969C264.938 51.3225 265.195 52.2869 265.707 52.99C266.225 53.6882 266.935 54.0374 267.839 54.0374C268.747 54.0374 269.45 53.7078 269.948 53.0486C270.446 52.3845 270.702 51.4348 270.717 50.1995V49.4084ZM277.367 50.3313C276.161 49.9846 275.282 49.5598 274.731 49.0569C274.184 48.5491 273.91 47.9241 273.91 47.1819C273.91 46.342 274.245 45.6487 274.914 45.1018C275.588 44.55 276.462 44.2742 277.536 44.2742C278.268 44.2742 278.92 44.4158 279.491 44.699C280.068 44.9822 280.512 45.3728 280.824 45.8708C281.142 46.3689 281.301 46.9133 281.301 47.5042H279.887C279.887 46.8596 279.682 46.3542 279.272 45.988C278.862 45.6169 278.283 45.4314 277.536 45.4314C276.843 45.4314 276.301 45.5852 275.91 45.8928C275.524 46.1956 275.331 46.6179 275.331 47.1599C275.331 47.5945 275.514 47.9631 275.881 48.2659C276.252 48.5637 276.879 48.8372 277.763 49.0862C278.652 49.3352 279.345 49.6111 279.843 49.9138C280.346 50.2117 280.717 50.5608 280.956 50.9612C281.2 51.3616 281.323 51.8328 281.323 52.3748C281.323 53.239 280.986 53.9324 280.312 54.4548C279.638 54.9724 278.737 55.2312 277.609 55.2312C276.877 55.2312 276.193 55.092 275.558 54.8137C274.924 54.5305 274.433 54.1448 274.086 53.6565C273.744 53.1682 273.573 52.614 273.573 51.9939H274.987C274.987 52.6384 275.224 53.1487 275.698 53.5247C276.176 53.8958 276.813 54.0813 277.609 54.0813C278.351 54.0813 278.92 53.9299 279.316 53.6272C279.711 53.3245 279.909 52.9119 279.909 52.3894C279.909 51.8669 279.726 51.4641 279.36 51.1809C278.993 50.8928 278.329 50.6096 277.367 50.3313Z" fill="white"/>
</g>
<defs>
<filter id="filter0_d_209:6" x="0.691772" y="3.4646" width="144.907" height="62.0547" filterUnits="userSpaceOnUse" color-interpolation-filters="sRGB">
<feFlood flood-opacity="0" result="BackgroundImageFix"/>
<feColorMatrix in="SourceAlpha" type="matrix" values="0 0 0 0 0 0 0 0 0 0 0 0 0 0 0 0 0 0 127 0" result="hardAlpha"/>
<feOffset dy="4"/>
<feGaussianBlur stdDeviation="2"/>
<feComposite in2="hardAlpha" operator="out"/>
<feColorMatrix type="matrix" values="0 0 0 0 0 0 0 0 0 0 0 0 0 0 0 0 0 0 0.25 0"/>
<feBlend mode="normal" in2="BackgroundImageFix" result="effect1_dropShadow_209:6"/>
<feBlend mode="normal" in="SourceGraphic" in2="effect1_dropShadow_209:6" result="shape"/>
</filter>
<filter id="filter1_d_209:6" x="146.08" y="8.27417" width="139.243" height="54.957" filterUnits="userSpaceOnUse" color-interpolation-filters="sRGB">
<feFlood flood-opacity="0" result="BackgroundImageFix"/>
<feColorMatrix in="SourceAlpha" type="matrix" values="0 0 0 0 0 0 0 0 0 0 0 0 0 0 0 0 0 0 127 0" result="hardAlpha"/>
<feOffset dy="4"/>
<feGaussianBlur stdDeviation="2"/>
<feComposite in2="hardAlpha" operator="out"/>
<feColorMatrix type="matrix" values="0 0 0 0 0 0 0 0 0 0 0 0 0 0 0 0 0 0 0.25 0"/>
<feBlend mode="normal" in2="BackgroundImageFix" result="effect1_dropShadow_209:6"/>
<feBlend mode="normal" in="SourceGraphic" in2="effect1_dropShadow_209:6" result="shape"/>
</filter>
</defs>
</svg>
