<svg width="212" height="51" viewBox="0 0 212 51" fill="none" xmlns="http://www.w3.org/2000/svg">
<path d="M1.55 23C1.55 20.8333 1.93333 18.7 2.7 16.6C3.5 14.5 4.65 12.6 6.15 10.9C7.65 9.2 9.48333 7.85 11.65 6.85C13.8167 5.81666 16.2833 5.3 19.05 5.3C22.2833 5.3 25.1 6.01667 27.5 7.45C29.9 8.88333 31.6833 10.75 32.85 13.05L27.55 16.7C26.95 15.3667 26.1667 14.3167 25.2 13.55C24.2333 12.7833 23.1833 12.2333 22.05 11.9C20.95 11.5667 19.8833 11.4 18.85 11.4C17.1167 11.4 15.6 11.75 14.3 12.45C13.0333 13.15 11.9667 14.0667 11.1 15.2C10.2333 16.3333 9.58333 17.6 9.15 19C8.75 20.4 8.55 21.8 8.55 23.2C8.55 25.3 8.98333 27.2667 9.85 29.1C10.7167 30.9 11.9333 32.3667 13.5 33.5C15.0667 34.6333 16.8833 35.2 18.95 35.2C20.0167 35.2 21.1167 35.0167 22.25 34.65C23.4167 34.2833 24.4833 33.7 25.45 32.9C26.4167 32.1 27.1667 31.0667 27.7 29.8L33.35 33.05C32.6167 34.8167 31.4667 36.3167 29.9 37.55C28.3333 38.75 26.5667 39.6833 24.6 40.35C22.6333 40.9833 20.6833 41.3 18.75 41.3C16.2167 41.3 13.9 40.7833 11.8 39.75C9.73333 38.6833 7.93333 37.2833 6.4 35.55C4.86667 33.7833 3.66667 31.8167 2.8 29.65C1.96667 27.45 1.55 25.2333 1.55 23ZM59.1273 14.8C58.8273 14.4667 58.194 14.0333 57.2273 13.5C56.2607 12.9333 55.094 12.4333 53.7273 12C52.394 11.5333 51.0107 11.3 49.5773 11.3C45.8107 11.3 43.9273 12.6333 43.9273 15.3C43.9273 16.2667 44.2273 17.0333 44.8273 17.6C45.4273 18.1667 46.3273 18.65 47.5273 19.05C48.7273 19.45 50.2273 19.8833 52.0273 20.35C54.3607 20.95 56.3773 21.65 58.0773 22.45C59.8107 23.25 61.1273 24.3167 62.0273 25.65C62.9607 26.95 63.4273 28.6833 63.4273 30.85C63.4273 33.3833 62.8107 35.4333 61.5773 37C60.3773 38.5333 58.7773 39.65 56.7773 40.35C54.7773 41.05 52.6107 41.4 50.2773 41.4C47.6107 41.4 44.9607 41 42.3273 40.2C39.7273 39.3667 37.4107 38.2333 35.3773 36.8L38.4273 30.85C38.7273 31.15 39.2607 31.55 40.0273 32.05C40.794 32.5167 41.7273 33 42.8273 33.5C43.9273 33.9667 45.1273 34.3667 46.4273 34.7C47.7273 35.0333 49.044 35.2 50.3773 35.2C54.1773 35.2 56.0773 33.9833 56.0773 31.55C56.0773 30.5167 55.694 29.6833 54.9273 29.05C54.1607 28.4167 53.0773 27.8833 51.6773 27.45C50.3107 27.0167 48.7107 26.5333 46.8773 26C44.6107 25.3667 42.7273 24.6667 41.2273 23.9C39.7607 23.1 38.6607 22.1167 37.9273 20.95C37.194 19.75 36.8273 18.2333 36.8273 16.4C36.8273 13.9667 37.394 11.9333 38.5273 10.3C39.694 8.63333 41.2607 7.38333 43.2273 6.55C45.194 5.68333 47.3773 5.25 49.7773 5.25C52.244 5.25 54.544 5.65 56.6773 6.45C58.8107 7.25 60.644 8.16666 62.1773 9.2L59.1273 14.8ZM66.4914 23C66.4914 20.8333 66.8747 18.7 67.6414 16.6C68.4414 14.5 69.5914 12.6 71.0914 10.9C72.5914 9.2 74.4247 7.85 76.5914 6.85C78.7581 5.81666 81.2247 5.3 83.9914 5.3C87.2247 5.3 90.0414 6.01667 92.4414 7.45C94.8414 8.88333 96.6247 10.75 97.7914 13.05L92.4914 16.7C91.8914 15.3667 91.1081 14.3167 90.1414 13.55C89.1747 12.7833 88.1247 12.2333 86.9914 11.9C85.8914 11.5667 84.8247 11.4 83.7914 11.4C82.0581 11.4 80.5414 11.75 79.2414 12.45C77.9747 13.15 76.9081 14.0667 76.0414 15.2C75.1747 16.3333 74.5247 17.6 74.0914 19C73.6914 20.4 73.4914 21.8 73.4914 23.2C73.4914 25.3 73.9247 27.2667 74.7914 29.1C75.6581 30.9 76.8747 32.3667 78.4414 33.5C80.0081 34.6333 81.8247 35.2 83.8914 35.2C84.9581 35.2 86.0581 35.0167 87.1914 34.65C88.3581 34.2833 89.4247 33.7 90.3914 32.9C91.3581 32.1 92.1081 31.0667 92.6414 29.8L98.2914 33.05C97.5581 34.8167 96.4081 36.3167 94.8414 37.55C93.2747 38.75 91.5081 39.6833 89.5414 40.35C87.5747 40.9833 85.6247 41.3 83.6914 41.3C81.1581 41.3 78.8414 40.7833 76.7414 39.75C74.6747 38.6833 72.8747 37.2833 71.3414 35.55C69.8081 33.7833 68.6081 31.8167 67.7414 29.65C66.9081 27.45 66.4914 25.2333 66.4914 23Z" fill="#0077B3"/>
<path d="M102.341 11.04C102.341 10.5633 102.425 10.094 102.594 9.632C102.77 9.17 103.023 8.752 103.353 8.378C103.683 8.004 104.086 7.707 104.563 7.487C105.04 7.25967 105.582 7.146 106.191 7.146C106.902 7.146 107.522 7.30367 108.05 7.619C108.578 7.93433 108.97 8.345 109.227 8.851L108.061 9.654C107.929 9.36067 107.757 9.12967 107.544 8.961C107.331 8.79233 107.1 8.67133 106.851 8.598C106.609 8.52467 106.374 8.488 106.147 8.488C105.766 8.488 105.432 8.565 105.146 8.719C104.867 8.873 104.633 9.07467 104.442 9.324C104.251 9.57333 104.108 9.852 104.013 10.16C103.925 10.468 103.881 10.776 103.881 11.084C103.881 11.546 103.976 11.9787 104.167 12.382C104.358 12.778 104.625 13.1007 104.97 13.35C105.315 13.5993 105.714 13.724 106.169 13.724C106.404 13.724 106.646 13.6837 106.895 13.603C107.152 13.5223 107.386 13.394 107.599 13.218C107.812 13.042 107.977 12.8147 108.094 12.536L109.337 13.251C109.176 13.6397 108.923 13.9697 108.578 14.241C108.233 14.505 107.845 14.7103 107.412 14.857C106.979 14.9963 106.55 15.066 106.125 15.066C105.568 15.066 105.058 14.9523 104.596 14.725C104.141 14.4903 103.745 14.1823 103.408 13.801C103.071 13.4123 102.807 12.9797 102.616 12.503C102.433 12.019 102.341 11.5313 102.341 11.04ZM115.778 13.669V15H110.355V7.19H115.679V8.521H111.873V10.402H115.162V11.634H111.873V13.669H115.778ZM118.479 9.984V15H116.961V7.19H118.171L122.208 12.338V7.201H123.726V15H122.461L118.479 9.984ZM131.192 8.521H128.695V15H127.188V8.521H124.691V7.19H131.192V8.521ZM132.162 15V7.19H135.616C135.975 7.19 136.305 7.26333 136.606 7.41C136.914 7.55667 137.178 7.75467 137.398 8.004C137.625 8.25333 137.797 8.532 137.915 8.84C138.039 9.148 138.102 9.46333 138.102 9.786C138.102 10.2847 137.973 10.743 137.717 11.161C137.467 11.579 137.126 11.8797 136.694 12.063L138.476 15H136.804L135.198 12.382H133.68V15H132.162ZM133.68 11.051H135.583C135.869 11.051 136.103 10.93 136.287 10.688C136.477 10.4387 136.573 10.138 136.573 9.786C136.573 9.544 136.521 9.32767 136.419 9.137C136.316 8.94633 136.184 8.796 136.023 8.686C135.869 8.576 135.7 8.521 135.517 8.521H133.68V11.051ZM142.767 15.055C142.195 15.055 141.674 14.945 141.205 14.725C140.743 14.505 140.343 14.208 140.006 13.834C139.676 13.4527 139.419 13.0273 139.236 12.558C139.053 12.0813 138.961 11.5937 138.961 11.095C138.961 10.5743 139.056 10.0793 139.247 9.61C139.438 9.13333 139.705 8.71167 140.05 8.345C140.395 7.971 140.798 7.67767 141.26 7.465C141.729 7.245 142.243 7.135 142.8 7.135C143.365 7.135 143.878 7.24867 144.34 7.476C144.809 7.70333 145.209 8.00767 145.539 8.389C145.876 8.77033 146.133 9.19933 146.309 9.676C146.492 10.1453 146.584 10.6257 146.584 11.117C146.584 11.6303 146.489 12.1253 146.298 12.602C146.107 13.0713 145.84 13.493 145.495 13.867C145.158 14.2337 144.754 14.5233 144.285 14.736C143.823 14.9487 143.317 15.055 142.767 15.055ZM140.501 11.095C140.501 11.5497 140.589 11.975 140.765 12.371C140.948 12.767 141.209 13.0897 141.546 13.339C141.891 13.5883 142.301 13.713 142.778 13.713C143.269 13.713 143.684 13.5847 144.021 13.328C144.358 13.0713 144.615 12.7413 144.791 12.338C144.967 11.9347 145.055 11.5203 145.055 11.095C145.055 10.6403 144.963 10.215 144.78 9.819C144.597 9.423 144.333 9.104 143.988 8.862C143.651 8.61267 143.247 8.488 142.778 8.488C142.287 8.488 141.872 8.61633 141.535 8.873C141.198 9.12967 140.941 9.45967 140.765 9.863C140.589 10.259 140.501 10.6697 140.501 11.095ZM150.391 15V7.19H153.229C154.08 7.19 154.791 7.366 155.363 7.718C155.935 8.06267 156.364 8.532 156.65 9.126C156.936 9.71267 157.079 10.3653 157.079 11.084C157.079 11.876 156.921 12.5653 156.606 13.152C156.291 13.7387 155.843 14.1933 155.264 14.516C154.685 14.8387 154.006 15 153.229 15H150.391ZM155.55 11.084C155.55 10.578 155.458 10.1343 155.275 9.753C155.092 9.36433 154.828 9.06367 154.483 8.851C154.138 8.631 153.72 8.521 153.229 8.521H151.909V13.669H153.229C153.728 13.669 154.149 13.559 154.494 13.339C154.839 13.1117 155.099 12.8037 155.275 12.415C155.458 12.019 155.55 11.5753 155.55 11.084ZM163.688 13.669V15H158.265V7.19H163.589V8.521H159.783V10.402H163.072V11.634H159.783V13.669H163.688ZM107.467 22.236C107.401 22.1627 107.262 22.0673 107.049 21.95C106.836 21.8253 106.58 21.7153 106.279 21.62C105.986 21.5173 105.681 21.466 105.366 21.466C104.537 21.466 104.123 21.7593 104.123 22.346C104.123 22.5587 104.189 22.7273 104.321 22.852C104.453 22.9767 104.651 23.083 104.915 23.171C105.179 23.259 105.509 23.3543 105.905 23.457C106.418 23.589 106.862 23.743 107.236 23.919C107.617 24.095 107.907 24.3297 108.105 24.623C108.31 24.909 108.413 25.2903 108.413 25.767C108.413 26.3243 108.277 26.7753 108.006 27.12C107.742 27.4573 107.39 27.703 106.95 27.857C106.51 28.011 106.033 28.088 105.52 28.088C104.933 28.088 104.35 28 103.771 27.824C103.199 27.6407 102.689 27.3913 102.242 27.076L102.913 25.767C102.979 25.833 103.096 25.921 103.265 26.031C103.434 26.1337 103.639 26.24 103.881 26.35C104.123 26.4527 104.387 26.5407 104.673 26.614C104.959 26.6873 105.249 26.724 105.542 26.724C106.378 26.724 106.796 26.4563 106.796 25.921C106.796 25.6937 106.712 25.5103 106.543 25.371C106.374 25.2317 106.136 25.1143 105.828 25.019C105.527 24.9237 105.175 24.8173 104.772 24.7C104.273 24.5607 103.859 24.4067 103.529 24.238C103.206 24.062 102.964 23.8457 102.803 23.589C102.642 23.325 102.561 22.9913 102.561 22.588C102.561 22.0527 102.686 21.6053 102.935 21.246C103.192 20.8793 103.536 20.6043 103.969 20.421C104.402 20.2303 104.882 20.135 105.41 20.135C105.953 20.135 106.459 20.223 106.928 20.399C107.397 20.575 107.801 20.7767 108.138 21.004L107.467 22.236ZM114.983 26.669V28H109.56V20.19H114.884V21.521H111.078V23.402H114.367V24.634H111.078V26.669H114.983ZM116.167 28V20.19H119.621C119.98 20.19 120.31 20.2633 120.611 20.41C120.919 20.5567 121.183 20.7547 121.403 21.004C121.63 21.2533 121.802 21.532 121.92 21.84C122.044 22.148 122.107 22.4633 122.107 22.786C122.107 23.2847 121.978 23.743 121.722 24.161C121.472 24.579 121.131 24.8797 120.699 25.063L122.481 28H120.809L119.203 25.382H117.685V28H116.167ZM117.685 24.051H119.588C119.874 24.051 120.108 23.93 120.292 23.688C120.482 23.4387 120.578 23.138 120.578 22.786C120.578 22.544 120.526 22.3277 120.424 22.137C120.321 21.9463 120.189 21.796 120.028 21.686C119.874 21.576 119.705 21.521 119.522 21.521H117.685V24.051ZM124.016 20.19L126.128 26.196L128.218 20.19H129.813L126.854 28H125.391L122.421 20.19H124.016ZM130.647 28V20.19H132.165V28H130.647ZM133.321 24.04C133.321 23.5633 133.406 23.094 133.574 22.632C133.75 22.17 134.003 21.752 134.333 21.378C134.663 21.004 135.067 20.707 135.543 20.487C136.02 20.2597 136.563 20.146 137.171 20.146C137.883 20.146 138.502 20.3037 139.03 20.619C139.558 20.9343 139.951 21.345 140.207 21.851L139.041 22.654C138.909 22.3607 138.737 22.1297 138.524 21.961C138.312 21.7923 138.081 21.6713 137.831 21.598C137.589 21.5247 137.355 21.488 137.127 21.488C136.746 21.488 136.412 21.565 136.126 21.719C135.848 21.873 135.613 22.0747 135.422 22.324C135.232 22.5733 135.089 22.852 134.993 23.16C134.905 23.468 134.861 23.776 134.861 24.084C134.861 24.546 134.957 24.9787 135.147 25.382C135.338 25.778 135.606 26.1007 135.95 26.35C136.295 26.5993 136.695 26.724 137.149 26.724C137.384 26.724 137.626 26.6837 137.875 26.603C138.132 26.5223 138.367 26.394 138.579 26.218C138.792 26.042 138.957 25.8147 139.074 25.536L140.317 26.251C140.156 26.6397 139.903 26.9697 139.558 27.241C139.214 27.505 138.825 27.7103 138.392 27.857C137.96 27.9963 137.531 28.066 137.105 28.066C136.548 28.066 136.038 27.9523 135.576 27.725C135.122 27.4903 134.726 27.1823 134.388 26.801C134.051 26.4123 133.787 25.9797 133.596 25.503C133.413 25.019 133.321 24.5313 133.321 24.04ZM136.962 30.211C136.764 30.211 136.552 30.1817 136.324 30.123C136.097 30.0717 135.87 29.991 135.642 29.881L136.016 29.1C136.126 29.1733 136.236 29.2283 136.346 29.265C136.464 29.309 136.585 29.331 136.709 29.331C136.893 29.331 137.039 29.287 137.149 29.199C137.259 29.1183 137.314 28.9973 137.314 28.836C137.314 28.682 137.259 28.5353 137.149 28.396C137.047 28.264 136.896 28.132 136.698 28L137.193 27.681C137.479 27.879 137.718 28.088 137.908 28.308C138.106 28.528 138.205 28.7993 138.205 29.122C138.205 29.43 138.099 29.6867 137.886 29.892C137.681 30.1047 137.373 30.211 136.962 30.211ZM144.572 28.055C144 28.055 143.479 27.945 143.01 27.725C142.548 27.505 142.148 27.208 141.811 26.834C141.481 26.4527 141.224 26.0273 141.041 25.558C140.857 25.0813 140.766 24.5937 140.766 24.095C140.766 23.5743 140.861 23.0793 141.052 22.61C141.242 22.1333 141.51 21.7117 141.855 21.345C142.199 20.971 142.603 20.6777 143.065 20.465C143.534 20.245 144.047 20.135 144.605 20.135C145.169 20.135 145.683 20.2487 146.145 20.476C146.614 20.7033 147.014 21.0077 147.344 21.389C147.681 21.7703 147.938 22.1993 148.114 22.676C148.297 23.1453 148.389 23.6257 148.389 24.117C148.389 24.6303 148.293 25.1253 148.103 25.602C147.912 26.0713 147.644 26.493 147.3 26.867C146.962 27.2337 146.559 27.5233 146.09 27.736C145.628 27.9487 145.122 28.055 144.572 28.055ZM142.306 24.095C142.306 24.5497 142.394 24.975 142.57 25.371C142.753 25.767 143.013 26.0897 143.351 26.339C143.695 26.5883 144.106 26.713 144.583 26.713C145.074 26.713 145.488 26.5847 145.826 26.328C146.163 26.0713 146.42 25.7413 146.596 25.338C146.772 24.9347 146.86 24.5203 146.86 24.095C146.86 23.6403 146.768 23.215 146.585 22.819C146.401 22.423 146.137 22.104 145.793 21.862C145.455 21.6127 145.052 21.488 144.583 21.488C144.091 21.488 143.677 21.6163 143.34 21.873C143.002 22.1297 142.746 22.4597 142.57 22.863C142.394 23.259 142.306 23.6697 142.306 24.095ZM154.174 22.236C154.108 22.1627 153.969 22.0673 153.756 21.95C153.543 21.8253 153.287 21.7153 152.986 21.62C152.693 21.5173 152.388 21.466 152.073 21.466C151.244 21.466 150.83 21.7593 150.83 22.346C150.83 22.5587 150.896 22.7273 151.028 22.852C151.16 22.9767 151.358 23.083 151.622 23.171C151.886 23.259 152.216 23.3543 152.612 23.457C153.125 23.589 153.569 23.743 153.943 23.919C154.324 24.095 154.614 24.3297 154.812 24.623C155.017 24.909 155.12 25.2903 155.12 25.767C155.12 26.3243 154.984 26.7753 154.713 27.12C154.449 27.4573 154.097 27.703 153.657 27.857C153.217 28.011 152.74 28.088 152.227 28.088C151.64 28.088 151.057 28 150.478 27.824C149.906 27.6407 149.396 27.3913 148.949 27.076L149.62 25.767C149.686 25.833 149.803 25.921 149.972 26.031C150.141 26.1337 150.346 26.24 150.588 26.35C150.83 26.4527 151.094 26.5407 151.38 26.614C151.666 26.6873 151.956 26.724 152.249 26.724C153.085 26.724 153.503 26.4563 153.503 25.921C153.503 25.6937 153.419 25.5103 153.25 25.371C153.081 25.2317 152.843 25.1143 152.535 25.019C152.234 24.9237 151.882 24.8173 151.479 24.7C150.98 24.5607 150.566 24.4067 150.236 24.238C149.913 24.062 149.671 23.8457 149.51 23.589C149.349 23.325 149.268 22.9913 149.268 22.588C149.268 22.0527 149.393 21.6053 149.642 21.246C149.899 20.8793 150.243 20.6043 150.676 20.421C151.109 20.2303 151.589 20.135 152.117 20.135C152.66 20.135 153.166 20.223 153.635 20.399C154.104 20.575 154.508 20.7767 154.845 21.004L154.174 22.236ZM108.66 38.5186C108.563 39.3457 108.257 39.9849 107.742 40.436C107.23 40.8836 106.548 41.1074 105.695 41.1074C104.771 41.1074 104.03 40.7762 103.472 40.1138C102.917 39.4513 102.639 38.5651 102.639 37.4551V36.7031C102.639 35.9762 102.768 35.3371 103.026 34.7856C103.287 34.2342 103.656 33.8117 104.132 33.5181C104.609 33.2209 105.16 33.0723 105.787 33.0723C106.617 33.0723 107.283 33.305 107.785 33.7705C108.286 34.2324 108.578 34.8734 108.66 35.6934H107.624C107.534 35.0703 107.339 34.6191 107.038 34.3398C106.741 34.0605 106.324 33.9209 105.787 33.9209C105.128 33.9209 104.61 34.1644 104.234 34.6514C103.862 35.1383 103.676 35.8312 103.676 36.73V37.4873C103.676 38.3359 103.853 39.0109 104.208 39.5122C104.562 40.0135 105.058 40.2642 105.695 40.2642C106.268 40.2642 106.707 40.1353 107.011 39.8774C107.319 39.616 107.523 39.1631 107.624 38.5186H108.66ZM116.088 37.3423C116.088 38.1086 115.959 38.7782 115.702 39.3511C115.444 39.9204 115.079 40.3555 114.606 40.6562C114.133 40.957 113.582 41.1074 112.952 41.1074C112.336 41.1074 111.79 40.957 111.313 40.6562C110.837 40.3519 110.467 39.9204 110.202 39.3618C109.94 38.7996 109.806 38.1497 109.799 37.4121V36.8481C109.799 36.0962 109.93 35.432 110.191 34.8555C110.452 34.279 110.821 33.8385 111.297 33.5342C111.777 33.2262 112.325 33.0723 112.941 33.0723C113.568 33.0723 114.119 33.2244 114.595 33.5288C115.075 33.8296 115.444 34.2682 115.702 34.8447C115.959 35.4176 116.088 36.0854 116.088 36.8481V37.3423ZM115.062 36.8374C115.062 35.91 114.876 35.1992 114.504 34.7051C114.132 34.2074 113.611 33.9585 112.941 33.9585C112.289 33.9585 111.775 34.2074 111.399 34.7051C111.027 35.1992 110.835 35.8867 110.825 36.7676V37.3423C110.825 38.241 111.013 38.9482 111.389 39.4639C111.768 39.9759 112.289 40.2319 112.952 40.2319C113.618 40.2319 114.133 39.9902 114.499 39.5068C114.864 39.0199 115.052 38.3234 115.062 37.4175V36.8374ZM118.967 33.1797L121.524 39.5605L124.081 33.1797H125.418V41H124.387V37.9546L124.483 34.6675L121.916 41H121.126L118.564 34.6836L118.667 37.9546V41H117.635V33.1797H118.967ZM128.27 37.9385V41H127.239V33.1797H130.123C130.979 33.1797 131.648 33.3981 132.132 33.835C132.619 34.2718 132.862 34.8501 132.862 35.5698C132.862 36.3289 132.624 36.9144 132.148 37.3262C131.675 37.7344 130.997 37.9385 130.112 37.9385H128.27ZM128.27 37.0952H130.123C130.674 37.0952 131.097 36.9663 131.391 36.7085C131.684 36.4471 131.831 36.0711 131.831 35.5806C131.831 35.1151 131.684 34.7427 131.391 34.4634C131.097 34.1841 130.694 34.0391 130.182 34.0283H128.27V37.0952ZM138.497 38.959H135.22L134.484 41H133.421L136.407 33.1797H137.31L140.301 41H139.243L138.497 38.959ZM135.532 38.1104H138.19L136.858 34.4526L135.532 38.1104ZM144.222 37.8364H142.385V41H141.349V33.1797H143.938C144.818 33.1797 145.495 33.3802 145.968 33.7812C146.444 34.1823 146.682 34.766 146.682 35.5322C146.682 36.0192 146.55 36.4435 146.285 36.8052C146.023 37.1668 145.658 37.4372 145.189 37.6162L147.026 40.9355V41H145.919L144.222 37.8364ZM142.385 36.9932H143.97C144.482 36.9932 144.888 36.8607 145.189 36.5957C145.493 36.3307 145.646 35.9762 145.646 35.5322C145.646 35.0488 145.5 34.6782 145.21 34.4204C144.924 34.1626 144.509 34.0319 143.964 34.0283H142.385V36.9932ZM153.536 34.0283H151.022V41H149.996V34.0283H147.488V33.1797H153.536V34.0283ZM155.802 41H154.771V33.1797H155.802V41ZM158.729 40.1567H162.436V41H157.693V33.1797H158.729V40.1567ZM169.622 41H168.585V37.3853H164.643V41H163.612V33.1797H164.643V36.542H168.585V33.1797H169.622V41ZM175.772 38.959H172.496L171.76 41H170.696L173.683 33.1797H174.585L177.577 41H176.519L175.772 38.959ZM172.807 38.1104H175.466L174.134 34.4526L172.807 38.1104ZM178.629 41V33.1797H180.837C181.517 33.1797 182.119 33.3301 182.642 33.6309C183.164 33.9316 183.567 34.3595 183.85 34.9146C184.137 35.4696 184.282 36.1069 184.285 36.8267V37.3262C184.285 38.0638 184.142 38.7101 183.855 39.2651C183.573 39.8201 183.166 40.2463 182.636 40.5435C182.11 40.8407 181.496 40.9928 180.794 41H178.629ZM179.661 34.0283V40.1567H180.746C181.541 40.1567 182.158 39.9097 182.599 39.4155C183.043 38.9214 183.265 38.2178 183.265 37.3047V36.8481C183.265 35.9601 183.055 35.2708 182.636 34.7803C182.221 34.2861 181.63 34.0355 180.864 34.0283H179.661ZM191.864 37.3423C191.864 38.1086 191.735 38.7782 191.477 39.3511C191.219 39.9204 190.854 40.3555 190.381 40.6562C189.909 40.957 189.357 41.1074 188.727 41.1074C188.111 41.1074 187.565 40.957 187.089 40.6562C186.613 40.3519 186.242 39.9204 185.977 39.3618C185.716 38.7996 185.581 38.1497 185.574 37.4121V36.8481C185.574 36.0962 185.705 35.432 185.966 34.8555C186.228 34.279 186.597 33.8385 187.073 33.5342C187.553 33.2262 188.1 33.0723 188.716 33.0723C189.343 33.0723 189.894 33.2244 190.371 33.5288C190.85 33.8296 191.219 34.2682 191.477 34.8447C191.735 35.4176 191.864 36.0854 191.864 36.8481V37.3423ZM190.838 36.8374C190.838 35.91 190.652 35.1992 190.279 34.7051C189.907 34.2074 189.386 33.9585 188.716 33.9585C188.065 33.9585 187.551 34.2074 187.175 34.7051C186.802 35.1992 186.611 35.8867 186.6 36.7676V37.3423C186.6 38.241 186.788 38.9482 187.164 39.4639C187.544 39.9759 188.065 40.2319 188.727 40.2319C189.393 40.2319 189.909 39.9902 190.274 39.5068C190.639 39.0199 190.827 38.3234 190.838 37.4175V36.8374ZM195.715 37.5142C194.83 37.2599 194.186 36.9484 193.781 36.5796C193.38 36.2072 193.18 35.7489 193.18 35.2046C193.18 34.5887 193.425 34.0802 193.916 33.6792C194.41 33.2746 195.051 33.0723 195.838 33.0723C196.375 33.0723 196.854 33.1761 197.272 33.3838C197.695 33.5915 198.021 33.8779 198.25 34.2432C198.483 34.6084 198.599 35.0076 198.599 35.4409H197.562C197.562 34.9683 197.412 34.5977 197.111 34.3291C196.811 34.057 196.386 33.9209 195.838 33.9209C195.33 33.9209 194.932 34.0337 194.646 34.2593C194.363 34.4813 194.222 34.791 194.222 35.1885C194.222 35.5072 194.356 35.7775 194.625 35.9995C194.897 36.2179 195.357 36.4185 196.005 36.6011C196.657 36.7837 197.165 36.986 197.53 37.208C197.899 37.4264 198.171 37.6825 198.347 37.9761C198.526 38.2697 198.615 38.6152 198.615 39.0127C198.615 39.6465 198.368 40.1549 197.874 40.5381C197.38 40.9176 196.719 41.1074 195.892 41.1074C195.355 41.1074 194.854 41.0054 194.388 40.8013C193.923 40.5936 193.563 40.3107 193.309 39.9526C193.058 39.5946 192.933 39.1882 192.933 38.7334H193.969C193.969 39.2061 194.143 39.5802 194.49 39.856C194.841 40.1281 195.308 40.2642 195.892 40.2642C196.436 40.2642 196.854 40.1532 197.144 39.9312C197.434 39.7091 197.579 39.4066 197.579 39.0234C197.579 38.6403 197.444 38.3449 197.176 38.1372C196.907 37.9259 196.42 37.7183 195.715 37.5142Z" fill="#025A86"/>
</svg>
