<svg width="234" height="44" viewBox="0 0 234 44" fill="none" xmlns="http://www.w3.org/2000/svg">
<g filter="url(#filter0_d_350_7)">
<path d="M37.5436 26.9503C37.5436 28.3526 37.2501 29.6734 36.6631 30.9126C36.0761 32.1192 35.1141 33.1791 33.777 34.0922C32.4726 34.9727 30.7605 35.6739 28.6407 36.1957C26.5536 36.7175 23.9773 36.9783 20.9118 36.9783C19.1834 36.9783 17.4876 36.8479 15.8244 36.587C14.1938 36.3261 12.6285 35.9511 11.1284 35.4619C9.66084 34.9727 8.29116 34.3857 7.01931 33.7009C5.78007 32.9834 4.70389 32.2008 3.79077 31.3529L6.23663 28.4178C8.09549 30.0158 10.2641 31.2387 12.7426 32.0866C15.2211 32.9019 17.9441 33.3096 20.9118 33.3096C24.2056 33.3096 26.5373 32.853 27.907 31.9399C29.2766 31.0268 29.9615 29.7712 29.9615 28.1732C29.9615 26.934 29.4234 25.8904 28.3472 25.0425C27.271 24.1947 25.4448 23.3631 22.8685 22.5478L13.5742 19.6127C10.5087 18.6344 8.19332 17.3952 6.62797 15.895C5.06262 14.3623 4.27995 12.4219 4.27995 10.0739C4.27995 8.86726 4.55714 7.70955 5.11154 6.60077C5.69854 5.45936 6.59536 4.46471 7.80198 3.61681C9.00861 2.73631 10.5413 2.05147 12.4002 1.56229C14.2917 1.04051 16.5582 0.779619 19.1997 0.779619C20.7977 0.779619 22.3793 0.910065 23.9447 1.17096C25.5426 1.43185 27.0591 1.80688 28.494 2.29605C29.9615 2.78522 31.3148 3.38854 32.5541 4.10599C33.8259 4.79083 34.9184 5.5572 35.8315 6.4051L33.3857 9.34013C31.5268 7.74217 29.4397 6.53554 27.1243 5.72026C24.8089 4.87236 22.1673 4.44841 19.1997 4.44841C16.7538 4.44841 14.9113 4.87236 13.672 5.72026C12.4654 6.56815 11.8621 7.61172 11.8621 8.85096C11.8621 9.5358 11.9763 10.1391 12.2045 10.6609C12.4328 11.1501 12.8078 11.6229 13.3296 12.0795C13.884 12.5034 14.6015 12.9111 15.482 13.3024C16.3625 13.6611 17.455 14.0525 18.7594 14.4764L28.0048 17.4115C30.9724 18.3572 33.3041 19.5964 34.9999 21.1292C36.6957 22.6619 37.5436 24.6023 37.5436 26.9503ZM57.1105 33.5541C58.7085 33.5541 60.1923 33.2769 61.562 32.7225C62.9643 32.1682 64.334 31.3855 65.671 30.3745L67.6277 33.3096C67.0081 33.8639 66.2743 34.3694 65.4264 34.826C64.6112 35.2825 63.7143 35.6739 62.736 36C61.7903 36.2935 60.7956 36.5218 59.752 36.6848C58.7085 36.8805 57.6649 36.9783 56.6213 36.9783C54.3059 36.9783 52.1862 36.6685 50.2621 36.0489C48.3706 35.4619 46.7564 34.5977 45.4193 33.4563C44.0822 32.2823 43.0387 30.8474 42.2886 29.1516C41.5712 27.4558 41.2124 25.4991 41.2124 23.2815C41.2124 21.0966 41.5548 19.1562 42.2397 17.4604C42.9571 15.732 43.9355 14.2971 45.1747 13.1557C46.4466 11.9817 47.9467 11.1011 49.6751 10.5141C51.4035 9.89452 53.3113 9.58471 55.3984 9.58471C57.3551 9.58471 59.1977 9.87822 60.9261 10.4652C62.6545 11.0522 64.1546 11.9164 65.4264 13.0578C66.6983 14.1666 67.7092 15.52 68.4593 17.118C69.2094 18.7159 69.5844 20.5259 69.5844 22.5478V25.972H48.6968C49.0881 28.6787 50.0175 30.6191 51.485 31.7931C52.9852 32.9671 54.8603 33.5541 57.1105 33.5541ZM55.3984 12.7643C54.4527 12.7643 53.5722 12.9437 52.7569 13.3024C51.9416 13.6611 51.2241 14.2318 50.6045 15.0145C50.0175 15.7972 49.5284 16.8082 49.137 18.0474C48.7783 19.2866 48.5826 20.7868 48.55 22.5478H62.2468C62.2468 20.852 62.0512 19.3845 61.6598 18.1452C61.2685 16.906 60.7467 15.895 60.0945 15.1124C59.4748 14.2971 58.7411 13.7101 57.8932 13.3513C57.0779 12.96 56.2463 12.7643 55.3984 12.7643ZM94.5283 13.9873H88.6583C86.4407 13.9873 84.7449 14.5906 83.5709 15.7972C82.3969 16.9712 81.8099 18.7322 81.8099 21.0803V36H74.9615V21.0803C74.9615 17.7539 76.005 15.1776 78.0922 13.3513C80.2119 11.4925 83.2448 10.5631 87.1908 10.5631H94.5283V13.9873ZM116.033 36H105.271L95.4876 10.5631H102.336L110.407 31.842H110.897L118.968 10.5631H125.816L116.033 36ZM136.561 36H129.712V11.0522H136.561V36ZM140.523 0.290447L135.338 7.62803H130.691L133.626 0.290447H140.523ZM167.195 32.5758V36H141.758V32.0866L158.635 13.9873H142.247V10.5631H166.706V14.4764L149.83 32.5758H167.195ZM185.518 33.5541C187.116 33.5541 188.6 33.2769 189.97 32.7225C191.372 32.1682 192.742 31.3855 194.079 30.3745L196.035 33.3096C195.416 33.8639 194.682 34.3694 193.834 34.826C193.019 35.2825 192.122 35.6739 191.144 36C190.198 36.2935 189.203 36.5218 188.16 36.6848C187.116 36.8805 186.073 36.9783 185.029 36.9783C182.714 36.9783 180.594 36.6685 178.67 36.0489C176.778 35.4619 175.164 34.5977 173.827 33.4563C172.49 32.2823 171.446 30.8474 170.696 29.1516C169.979 27.4558 169.62 25.4991 169.62 23.2815C169.62 21.0966 169.962 19.1562 170.647 17.4604C171.365 15.732 172.343 14.2971 173.582 13.1557C174.854 11.9817 176.354 11.1011 178.083 10.5141C179.811 9.89452 181.719 9.58471 183.806 9.58471C185.763 9.58471 187.605 9.87822 189.334 10.4652C191.062 11.0522 192.562 11.9164 193.834 13.0578C195.106 14.1666 196.117 15.52 196.867 17.118C197.617 18.7159 197.992 20.5259 197.992 22.5478V25.972H177.104C177.496 28.6787 178.425 30.6191 179.893 31.7931C181.393 32.9671 183.268 33.5541 185.518 33.5541ZM183.806 12.7643C182.86 12.7643 181.98 12.9437 181.165 13.3024C180.349 13.6611 179.632 14.2318 179.012 15.0145C178.425 15.7972 177.936 16.8082 177.545 18.0474C177.186 19.2866 176.99 20.7868 176.958 22.5478H190.654C190.654 20.852 190.459 19.3845 190.067 18.1452C189.676 16.906 189.154 15.895 188.502 15.1124C187.882 14.2971 187.149 13.7101 186.301 13.3513C185.486 12.96 184.654 12.7643 183.806 12.7643ZM230.518 36H223.67V20.5911C223.67 18.2431 223.083 16.5636 221.909 15.5526C220.735 14.509 219.039 13.9873 216.821 13.9873H210.462V36H203.614V10.5631H216.821C221.485 10.5631 224.925 11.411 227.143 13.1068C229.393 14.7699 230.518 17.2647 230.518 20.5911V36Z" fill="white"/>
</g>
<defs>
<filter id="filter0_d_350_7" x="0.733691" y="0.290039" width="232.842" height="42.8031" filterUnits="userSpaceOnUse" color-interpolation-filters="sRGB">
<feFlood flood-opacity="0" result="BackgroundImageFix"/>
<feColorMatrix in="SourceAlpha" type="matrix" values="0 0 0 0 0 0 0 0 0 0 0 0 0 0 0 0 0 0 127 0" result="hardAlpha"/>
<feOffset dy="3.05732"/>
<feGaussianBlur stdDeviation="1.52866"/>
<feComposite in2="hardAlpha" operator="out"/>
<feColorMatrix type="matrix" values="0 0 0 0 0 0 0 0 0 0 0 0 0 0 0 0 0 0 0.25 0"/>
<feBlend mode="normal" in2="BackgroundImageFix" result="effect1_dropShadow_350_7"/>
<feBlend mode="normal" in="SourceGraphic" in2="effect1_dropShadow_350_7" result="shape"/>
</filter>
</defs>
</svg>
